name processed_emg_signals
nRows=91
nColumns=7
 
endheader
time	RGLTMED	RRF	RADDLONG	RBF	RTA	RGM
19.229999999999926	0.0121394132591047	0.0211055655784217	0.0141255166670304	0.4546031554542433	0.9127999848751664	0.1228889900534953
19.239999999999924	0.0121175766181537	0.021033097528674	0.0141164856725949	0.46002281067395	0.9147104870312968	0.1220578852097463
19.249999999999922	0.0120975430840004	0.020960837794891	0.0141084802210987	0.4652396625728542	0.9164016562823591	0.1212224541452745
19.259999999999923	0.0120793213858196	0.0208887939285856	0.0141014922227949	0.4702468286844532	0.9178656486917872	0.1203820059305655
19.269999999999925	0.0120629163710186	0.0208169755539886	0.0140955130516994	0.4750376433159703	0.9190948332767792	0.1195358710966748
19.279999999999923	0.0120483290091424	0.0207453944996215	0.0140905335470683	0.4796056728756755	0.9200818161297444	0.1186834043498468
19.28999999999992	0.0120355564047396	0.0206740649203153	0.0140865440147039	0.4839447310283921	0.9208194643593828	0.1178239871630015
19.299999999999923	0.0120245918192302	0.020603003409306	0.0140835342281433	0.4880488936332818	0.9213009297876704	0.1169570302413434
19.309999999999924	0.012015424701766	0.0205322291000957	0.0140814934297566	0.4919125134162764	0.9215196723369592	0.1160819758604673
19.319999999999922	0.0120080407290479	0.0204617637578432	0.0140804103317568	0.4955302343278016	0.921469483039946	0.1151983000760133
19.32999999999992	0.0120024218540174	0.020391631860158	0.014080273117098	0.4988970055347368	0.9211445066045236	0.1143055148042705
19.33999999999992	0.0119985463633121	0.0203218606673057	0.0140810694402082	0.5020080949938946	0.9205392634655974	0.1134031697732606
19.349999999999923	0.01199638894336	0.0202524802819574	0.0140827864274742	0.5048591025527318	0.9196486712568624	0.1124908543437671
19.35999999999992	0.011995920754968	0.0201835236986771	0.0140854106773679	0.5074459725215792	0.9184680656373244	0.1115681991995709
19.36999999999992	0.0119971095162564	0.0201150268433528	0.014088928260072	0.509765005660469	0.9169932204098636	0.1106348779058389
19.37999999999992	0.0119999195937707	0.0200470286027512	0.0140933247164502	0.5118128705228033	0.9152203668719242	0.1096906083342679
19.389999999999922	0.0120043121015894	0.0199795708443332	0.0140985850561831	0.5135866140978781	0.9131462123405468	0.1087351539532693
19.39999999999992	0.0120102450082219	0.0199126984264225	0.0141046937548958	0.5150836716951327	0.910767957794952	0.1077683249812005
19.40999999999992	0.0120176732510707	0.0198464591987857	0.0141116347500813	0.5163018760161346	0.9080833145800328	0.1067899794004349
19.41999999999992	0.0120265488582014	0.0197809039936684	0.014119391435628	0.5172394653669886	0.9050905201138504	0.1058000238298709
19.42999999999992	0.0120368210771313	0.0197160866073309	0.014127946654775	0.5178950909734101	0.9017883525414676	0.104798414253296
19.43999999999992	0.0120484365103192	0.019652063772139	0.0141372826913741	0.5182678233703534	0.8981761442760977	0.1037851566007949
19.449999999999918	0.0120613392570061	0.0195888951192756	0.0141473812594048	0.518357157845263	0.8942537943670047	0.10276030718012
19.45999999999992	0.0120754710610286	0.0195266431321501	0.0141582234907583	0.5181630189183078	0.8900217796325818	0.1017239729546483
19.46999999999992	0.0120907714641879	0.0194653730905806	0.01416978992134	0.517685763845391	0.8854811644968563	0.1006763116643232
19.47999999999992	0.0121071779647198	0.0194051530058408	0.0141820604755787	0.5169261851313356	0.8806336094680373	0.0996175317860033
19.489999999999917	0.0121246261803733	0.019346053546685	0.0141950144494454	0.5158855120418452	0.8754813781987018	0.0985478923301195
19.49999999999992	0.0121430500155581	0.0192881479565193	0.014208630492117	0.5145654111036878	0.8700273430700969	0.0974677024715055
19.50999999999992	0.012162381831997	0.0192315119619237	0.0142228865864594	0.5129679855832358	0.8642749892492823	0.0963773210137049
19.519999999999918	0.0121825526222887	0.0191762236727772	0.0142377600285446	0.5110957739342857	0.8582284171770296	0.0952771556878785
19.529999999999916	0.01220349218577	0.0191223634742502	0.0142532274064569	0.5089517472071546	0.8518923434540411	0.0941676622895039
19.539999999999917	0.0122251293060511	0.0190700139109053	0.0142692645786796	0.5065393054121785	0.8452721001012575	0.0930493436580573
19.54999999999992	0.0122473919295868	0.0190192595631291	0.0142858466523697	0.5038622728318572	0.8383736321769883	0.0919227485064577
19.559999999999917	0.0122702073446359	0.0189701869160808	0.014302947961832	0.5009248922778754	0.8312034937402687	0.0907884701081398
19.569999999999915	0.0122935023599629	0.0189228842213389	0.0143205420475068	0.4977318182940468	0.823768842156559	0.0896471448502672
19.579999999999917	0.0123172034826211	0.0188774413514078	0.0143386016357813	0.4942881093153571	0.8160774307484883	0.0884994506619568
19.589999999999918	0.0123412370941505	0.0188339496472283	0.0143570986199337	0.4905992188058344	0.8081375998009079	0.0873461053265276
19.599999999999916	0.012365529624497	0.0187925017588157	0.0143760040425131	0.4866709854107422	0.7999582659366359	0.0861878646867635
19.609999999999914	0.0123900077229489	0.0187531914791348	0.0143952880794441	0.4825096221683898	0.7915489098875177	0.0850255207520183
19.619999999999916	0.0124145984253701	0.0187161135713352	0.0144149200261361	0.4781217048328675	0.7829195626949188	0.0838598997157932
19.629999999999914	0.0124392293169916	0.0186813635894949	0.0144348682858744	0.4735141593623778	0.7740807903842218	0.082691859892179
19.639999999999915	0.0124638286900191	0.0186490376930701	0.0144551003607677	0.4686942486297838	0.7650436771685675	0.0815222895793566
19.649999999999913	0.0124883256953127	0.0186192324553345	0.0144755828455225	0.4636695584129029	0.7558198072464849	0.0803521048581474
19.659999999999915	0.0125126504874312	0.0185920446661595	0.0144962814242993	0.4584479827220576	0.7464212452646469	0.079182247333413
19.669999999999913	0.0125367343624304	0.0185675711295515	0.0145171608708868	0.4530377085218201	0.7368605155205472	0.0780136818258897
19.679999999999914	0.0125605098879765	0.0185459084563767	0.0145381850523965	0.4474471999030626	0.7271505799816318	0.0768473940218188
19.689999999999912	0.0125839110255329	0.018527152852715	0.0145593169366542	0.4416851817604438	0.7173048151984802	0.0756843880875248
19.699999999999914	0.0126068732445304	0.0185113999042758	0.0145805186034267	0.4357606230292418	0.7073369881903486	0.0745256842558713
19.709999999999912	0.0126293336285169	0.0184987443573159	0.0146017512596042	0.4296827195340191	0.6972612313815968	0.0733723163913193
19.719999999999914	0.0126512309733365	0.0184892798965058	0.0146229752584343	0.4234608765000993	0.6870920166672088	0.0722253295401008
19.72999999999991	0.0126725058774154	0.0184830989201999	0.0146441501228918	0.4171046907773006	0.6768441286850652	0.0710857774718046
19.739999999999913	0.0126931008242548	0.0184802923135662	0.0146652345732445	0.4106239328238584	0.666532637372241	0.069954720218474
19.74999999999991	0.0127129602572306	0.0184809492200444	0.0146861865588603	0.404028528496912	0.6561728698823179	0.0688332216170954
19.759999999999913	0.0127320306468078	0.0184851568115967	0.0147069632942865	0.3973285406943547	0.645780381940097	0.0677223468611509
19.76999999999991	0.0127502605502901	0.0184930000582229	0.0147275212996262	0.3905341508912614	0.6353709287088433	0.0666231600666825
19.779999999999912	0.0127676006642712	0.0185045614971951	0.0147478164452316	0.3836556406125935	0.6249604352435384	0.0655367218581016
19.789999999999914	0.0127840038700166	0.018519921002449	0.0147678040007167	0.3767033728824293	0.614564966601986	0.0644640869787691
19.799999999999912	0.0127994252720653	0.0185391555545394	0.014787438688283	0.3696877736885207	0.6042006976842165	0.0634063019311612
19.80999999999991	0.012813822230389	0.0185623390115385	0.0148066747403235	0.3626193134995369	0.593883882869303	0.0623644026512246
19.81999999999991	0.0128271543864626	0.0185895418812702	0.0148254659612661	0.3555084888708842	0.5836308255172676	0.061339412221299
19.829999999999913	0.0128393836836002	0.0186208310952882	0.014843765793597	0.3483658041735305	0.5734578474021795	0.0603323386257551
19.83999999999991	0.0128504743818907	0.0186562697850636	0.0148615273879943	0.341201753478796	0.5633812581409444	0.0593441725532627
19.84999999999991	0.0128603930680481	0.0186959170608701	0.014878703677487	0.3340268026306336	0.5534173246806053	0.0583758852493835
19.85999999999991	0.0128691086604683	0.0187398277938866	0.0148952474555354	0.326851371535504	0.5435822409051447	0.0574284264229537
19.869999999999912	0.0128765924097677	0.0187880524020478	0.0149111114579031	0.3196858166985467	0.5338920974208392	0.056502722209516
19.87999999999991	0.0128828178950718	0.0188406366401826	0.0149262484481702	0.3125404140333871	0.5243628515772454	0.0555996731948418
19.889999999999908	0.0128877610163208	0.0188976213949883	0.0149406113066968	0.3054253419715788	0.515010297778973	0.0547201525014005
19.89999999999991	0.0128913999828571	0.0189590424853757	0.0149541531228174	0.2983506648963863	0.5058500381414686	0.0538650039404491
19.90999999999991	0.0128937152985676	0.0190249304687225	0.0149668272900137	0.2913263169243802	0.4968974535420782	0.0530350402322551
19.91999999999991	0.0128946897438388	0.0190953104535475	0.014978587603792	0.2843620860570952	0.4881676751156578	0.0522310412968421
19.929999999999907	0.0128943083545758	0.0191702019191014	0.0149893883619701	0.2774675987238377	0.4796755562420124	0.0514537526175147
19.93999999999991	0.012892558398514	0.0192496185423456	0.0149991844670536	0.2706523047355575	0.4714356450705177	0.0507038836792886
19.94999999999991	0.0128894293490402	0.0193335680327672	0.0150079315303621	0.2639254626685595	0.4634621576253817	0.0499821064842015
19.95999999999991	0.012884912856726	0.0194220519754785	0.0150155859775368	0.257296125695691	0.4557689515332179	0.0492890541453124
19.969999999999906	0.0128790027187719	0.0195150656830454	0.0150221051550289	0.2507731278815432	0.448369500412856	0.048625319561045
19.979999999999908	0.0128716948465596	0.0196125980565235	0.0150274474371482	0.2443650709571259	0.4412768689656435	0.0479914541713819
19.98999999999991	0.012862987231515	0.019714631456232	0.0150315723332225	0.2380803115884384	0.4345036888028555	0.0473879667972877
19.999999999999908	0.0128528799094748	0.0198211415828548	0.0150344405944014	0.2319269491523451	0.4280621350451949	0.0468153225646096
20.009999999999906	0.0128413749237523	0.0199320973694982	0.0150360143196113	0.2259128140321867	0.4219639037277615	0.0462739419135799
20.019999999999907	0.0128284762870806	0.0200474608853337	0.0150362570601506	0.2200454564445871	0.4162201900422528	0.0457641996949156
20.02999999999991	0.0128141899425934	0.0201671872514261	0.0150351339224122	0.2143321358079858	0.4108416674465556	0.0452864243533632
20.039999999999907	0.012798523723979	0.020291224569312	0.015032611668215	0.2087798106625048	0.4058384676702664	0.0448408971993942
20.049999999999905	0.0127814873149172	0.0204195138628552	0.0150286588122315	0.20339512914989	0.4012201616430609	0.0444278517696171
20.059999999999906	0.0127630922078843	0.0205519890338879	0.0150232457159828	0.1981844200614041	0.3969957413712193	0.0440474732763372
20.069999999999904	0.0127433516623952	0.0206885768321302	0.0150163446778557	0.1931536844607099	0.3931736027860301	0.043699898146564
20.079999999999906	0.0127222806627308	0.0208291968398767	0.015007930018572	0.1883085878879593	0.3897615295862373	0.043385213650626
20.089999999999904	0.0126998958751775	0.02097376147191	0.0149979781615109	0.1836544531504877	0.3867666780951588	0.0431034576204179
20.099999999999905	0.0126762156047791	0.0211221759910792	0.0149864677072688	0.1791962537047358	0.3841955631515953	0.0428546182571593
20.109999999999904	0.0126512597515716	0.0212743385399389	0.0149733795018256	0.1749386076332607	0.3820540450521614	0.0426386340284096
20.119999999999905	0.0126250497662382	0.0214301401888036	0.0149586966976848	0.1708857722199839	0.3803473175611905	0.0424553936539616
20.129999999999903	0.0125976086050955	0.0215894650005211	0.0149424048073917	0.1670416391261139	0.379079897002927	0.0423047361801372
